<svg width="100" height="32" viewBox="0 0 100 32" fill="none" xmlns="http://www.w3.org/2000/svg">
<path fill-rule="evenodd" clip-rule="evenodd" d="M16.5665 4C17.0863 4 17.5076 4.42138 17.5076 4.94118V10.1176C17.5076 10.6374 17.0863 11.0588 16.5665 11.0588C16.0467 11.0588 15.6253 10.6374 15.6253 10.1176V4.94118C15.6253 4.42138 16.0467 4 16.5665 4ZM21.7429 4C22.2627 4 22.6841 4.42138 22.6841 4.94118V16.2353H17.5076V23.2941H21.2723V21.4118C21.2723 20.892 21.6937 20.4706 22.2135 20.4706C22.7333 20.4706 23.1547 20.892 23.1547 21.4118V27.0588C23.1547 27.5786 22.7333 28 22.2135 28C21.6937 28 21.2723 27.5786 21.2723 27.0588V25.1765H17.5076V27.0588C17.5076 27.5786 17.0863 28 16.5665 28C16.0467 28 15.6253 27.5786 15.6253 27.0588V14.3529H20.8018V4.94118C20.8018 4.42138 21.2231 4 21.7429 4ZM11.39 6.82353C11.9098 6.82353 12.3312 7.24491 12.3312 7.76471V24.2353C12.3312 24.7551 11.9098 25.1765 11.39 25.1765C10.8702 25.1765 10.4488 24.7551 10.4488 24.2353V12.4706H6.68411V16.2353C6.68411 16.7551 6.26273 17.1765 5.74293 17.1765C5.22314 17.1765 4.80176 16.7551 4.80176 16.2353V10.1176C4.80176 9.59785 5.22314 9.17647 5.74293 9.17647C6.26273 9.17647 6.68411 9.59785 6.68411 10.1176V10.5882H10.4488V7.76471C10.4488 7.24491 10.8702 6.82353 11.39 6.82353ZM27.8606 6.82353C28.3804 6.82353 28.8018 7.24491 28.8018 7.76471V11.5294H31.6253V10.1176C31.6253 9.59785 32.0467 9.17647 32.5665 9.17647C33.0863 9.17647 33.5076 9.59785 33.5076 10.1176V21.8824C33.5076 22.4022 33.0863 22.8235 32.5665 22.8235C32.0467 22.8235 31.6253 22.4022 31.6253 21.8824V20.9412H28.8018V23.2941C28.8018 23.8139 28.3804 24.2353 27.8606 24.2353C27.3408 24.2353 26.9194 23.8139 26.9194 23.2941V7.76471C26.9194 7.24491 27.3408 6.82353 27.8606 6.82353ZM28.8018 19.0588H31.6253V13.4118H28.8018V19.0588Z" fill="#CBCBCB"/>
<path d="M54.5001 22.3645H51.533L48.9862 13.9362L46.4918 22.3645H43.5511L39.5076 9H42.422L44.9952 17.4808L47.4896 9H50.4303L52.9771 17.4284L55.4977 9H58.4122L54.5001 22.3645Z" fill="#CBCBCB"/>
<path d="M59.5438 13.2272C59.5962 12.6671 59.7188 12.1332 59.9113 11.6256C60.1214 11.118 60.419 10.6717 60.8041 10.2866C61.1892 9.90146 61.6705 9.59514 62.2481 9.36758C62.8257 9.12252 63.491 9 64.2436 9H65.819C66.6066 9 67.2894 9.13127 67.867 9.39385C68.4622 9.65641 68.9522 10.0065 69.3374 10.4441C69.7225 10.8642 70.0113 11.3543 70.2038 11.9145C70.3964 12.457 70.4927 13.0084 70.4927 13.5687V22.3645H63.0358C62.4582 22.3645 61.9418 22.2595 61.4866 22.0494C61.0316 21.8218 60.6465 21.5331 60.3314 21.1829C60.0338 20.8154 59.8063 20.3865 59.6487 19.8964C59.5087 19.4063 59.4386 18.8812 59.4386 18.321C59.4386 17.7784 59.5174 17.2708 59.675 16.7982C59.8325 16.3256 60.0601 15.9229 60.3577 15.5903C60.6553 15.2403 61.0229 14.9689 61.4604 14.7764C61.9156 14.5663 62.4231 14.4613 62.9833 14.4613H67.4731V14.1988C67.4731 13.8837 67.4469 13.5949 67.3943 13.3324C67.3419 13.0522 67.2457 12.8159 67.1056 12.6234C66.9655 12.4308 66.7554 12.282 66.4754 12.177C66.1953 12.0544 65.819 11.9933 65.3463 11.9933H64.69C63.9898 11.9933 63.491 12.0983 63.1934 12.3084C62.8958 12.5008 62.6945 12.8072 62.5894 13.2272H59.5438ZM59.9113 18.321C59.9113 18.7762 62.3356 19.1175 62.5106 19.345C62.7033 19.5551 62.9134 19.6601 63.1408 19.6601H67.4731V16.982H63.1408C62.9134 16.982 62.7033 17.0957 62.5106 17.3232C62.3356 17.5508 59.9113 17.8834 59.9113 18.321Z" fill="#CBCBCB"/>
<path d="M78.7995 22.3645H75.8588L71.8153 9H74.7297L77.3029 17.4808L79.7973 9H82.738L78.7995 22.3645Z" fill="#CBCBCB"/>
<path d="M84.109 13.7524C84.109 13.1048 84.2316 12.5008 84.4767 11.9407C84.7217 11.3631 85.0455 10.8554 85.4481 10.4178C85.8507 9.98023 86.3146 9.6389 86.8398 9.39385C87.3648 9.13127 87.89 9 88.4151 9H91.4084C92.091 9 92.6949 9.14879 93.2201 9.44635C93.7627 9.72642 94.209 10.094 94.5591 10.5491C94.9266 10.9867 95.2068 11.4856 95.3993 12.0457C95.6094 12.5884 95.7143 13.1223 95.7143 13.6474V17.0345H87.2073V17.7434C87.2073 18.3736 87.3824 18.8199 87.7324 19.0825C88.0826 19.345 88.5463 19.4764 89.1241 19.4764H95.2417V22.417H88.4414C87.8463 22.417 87.286 22.3032 86.761 22.0757C86.2358 21.8306 85.7719 21.5068 85.3694 21.1042C84.9842 20.7016 84.6779 20.2202 84.4503 19.6601C84.2229 19.1 84.109 18.4873 84.109 17.8222V13.7524ZM87.2336 14.5401H89.9511L91.474 16.2106L92.6687 14.5401V14.4088C92.6687 13.7262 92.4937 13.166 92.1435 12.7284C91.7935 12.2733 91.3209 12.0457 90.7257 12.0457H89.0977C88.8177 12.0457 88.5639 12.1157 88.3364 12.2558C88.1088 12.3783 87.9162 12.5447 87.7586 12.7546C87.6011 12.9647 87.4699 13.2185 87.3648 13.5161C87.2773 13.7961 87.2336 14.0937 87.2336 14.4088V14.5401Z" fill="#CBCBCB"/>
</svg>
